<svg width="1080" height="1500" viewBox="0 0 1080 1500" xmlns="http://www.w3.org/2000/svg">
<defs>
 <radialGradient id="bg" cx="50%" cy="32%" r="80%"><stop offset="0" stop-color="#123a86"/><stop offset="0.55" stop-color="#0a2350"/><stop offset="1" stop-color="#05122c"/></radialGradient>
 <linearGradient id="gold2" x1="0" y1="0" x2="0" y2="1"><stop offset="0" stop-color="#ffe9a3"/><stop offset="0.5" stop-color="#e8a417"/><stop offset="1" stop-color="#b06a06"/></linearGradient>
 <linearGradient id="tg" x1="0" y1="0" x2="0" y2="1"><stop offset="0" stop-color="#fff3c4"/><stop offset="0.5" stop-color="#f0b32a"/><stop offset="1" stop-color="#a8650a"/></linearGradient>
 <linearGradient id="tgd" x1="0" y1="0" x2="0" y2="1"><stop offset="0" stop-color="#f0b32a"/><stop offset="1" stop-color="#7c4a06"/></linearGradient>
 <radialGradient id="glow" cx="50%" cy="50%" r="50%"><stop offset="0" stop-color="#f4b400" stop-opacity="0.5"/><stop offset="1" stop-color="#f4b400" stop-opacity="0"/></radialGradient>
 <linearGradient id="tile" x1="0" y1="0" x2="0" y2="1"><stop offset="0" stop-color="#143a7d"/><stop offset="1" stop-color="#0c244f"/></linearGradient>
</defs>
<rect width="1080" height="1500" fill="url(#bg)"/>
<rect x="26" y="26" width="1028" height="1448" rx="34" fill="none" stroke="url(#gold2)" stroke-width="6"/>
<rect x="42" y="42" width="996" height="1416" rx="26" fill="none" stroke="#f4c64a" stroke-width="2" stroke-opacity="0.5"/>
<g fill="#f4c64a"><circle cx="42" cy="42" r="9"/><circle cx="1038" cy="42" r="9"/><circle cx="42" cy="1458" r="9"/><circle cx="1038" cy="1458" r="9"/></g>
<ellipse cx="540" cy="430" rx="330" ry="270" fill="url(#glow)"/>
<g transform="translate(385,300) scale(1.5)">
 <path d="M44 36 C8 38 10 96 52 100" fill="none" stroke="url(#tg)" stroke-width="11" stroke-linecap="round"/>
 <path d="M156 36 C192 38 190 96 148 100" fill="none" stroke="url(#tg)" stroke-width="11" stroke-linecap="round"/>
 <path d="M40 28 H160 C160 92 132 132 100 132 C68 132 40 92 40 28 Z" fill="url(#tg)"/>
 <path d="M40 28 H160 V40 H40 Z" fill="#fff3c4" opacity="0.5"/>
 <rect x="91" y="130" width="18" height="34" fill="url(#tgd)"/>
 <path d="M66 164 H134 L126 186 H74 Z" fill="url(#tg)"/>
 <rect x="56" y="186" width="88" height="18" rx="4" fill="url(#tgd)"/>
 <rect x="48" y="204" width="104" height="16" rx="5" fill="url(#tg)"/>
 <ellipse cx="74" cy="60" rx="9" ry="22" fill="#ffffff" opacity="0.35"/>
</g>
<ellipse cx="540" cy="700" rx="250" ry="42" fill="url(#gold2)"/>
<rect x="290" y="700" width="500" height="64" fill="#9c6a12"/>
<ellipse cx="540" cy="764" rx="250" ry="42" fill="#7c520c"/>
<text x="540" y="850" text-anchor="middle" font-family="Georgia, serif" font-size="36" fill="#f4c64a" letter-spacing="2">ÁLBUM PROGRESSO</text>
<rect x="160" y="878" width="760" height="22" rx="11" fill="#081d40"/>
<g font-family="Arial" text-anchor="middle">
 <g transform="translate(70,950)"><rect width="220" height="180" rx="20" fill="url(#tile)" stroke="#f4c64a" stroke-opacity="0.55" stroke-width="2"/><text x="110" y="156" font-size="26" fill="#9fb8e6">tenho</text></g>
 <g transform="translate(310,950)"><rect width="220" height="180" rx="20" fill="url(#tile)" stroke="#f4c64a" stroke-opacity="0.55" stroke-width="2"/><text x="110" y="156" font-size="26" fill="#9fb8e6">faltam</text></g>
 <g transform="translate(550,950)"><rect width="220" height="180" rx="20" fill="url(#tile)" stroke="#f4c64a" stroke-opacity="0.55" stroke-width="2"/><text x="110" y="156" font-size="26" fill="#9fb8e6">repetidas</text></g>
 <g transform="translate(790,950)"><rect width="220" height="180" rx="20" fill="url(#tile)" stroke="#f4c64a" stroke-width="2"/><text x="110" y="156" font-size="26" fill="#9fb8e6">especiais</text></g>
</g>
<rect x="120" y="1300" width="840" height="96" rx="22" fill="#0c244f" stroke="#f4c64a" stroke-opacity="0.6" stroke-width="2"/>
<text x="540" y="1346" text-anchor="middle" font-family="Arial" font-weight="bold" font-size="36" fill="#ffffff">Quem tem as que me faltam?</text>
<text x="540" y="1380" text-anchor="middle" font-family="Arial" font-size="26" fill="#9fb8e6">Bora trocar!</text>
<text x="540" y="1448" text-anchor="middle" font-family="Arial" font-weight="bold" font-size="30" fill="#f4c64a">albumcopa.xyz · monte o seu grátis</text>
</svg>
